<svg xmlns="http://www.w3.org/2000/svg" width="284.07" height="154" viewBox="0 0 284.07 154">
  <g id="tweet_bubble" transform="translate(-323.93 -835)">
    <path id="Rounded_Rectangle_2" data-name="Rounded Rectangle 2" d="M343,877a10,10,0,0,1-9.891-8.522c-4.8-1.954-11.89-5.134-8.109-5.477,5.5-.5,8-8,8-8V845a10,10,0,0,1,10-10H598a10,10,0,0,1,10,10v22a10,10,0,0,1-10,10Z" fill="#fff"/>
    <text id="Daily_Mobile_UI_Design_Inspiration_1_via_cssauthor" data-name="Daily Mobile UI Design Inspiration #1 
via @cssauthor" transform="translate(351.5 853.5)" fill="#8f8e8e" font-size="13.049" font-family="ArialMT, Arial" letter-spacing="0.01em"><tspan x="0" y="0">Daily Mobile UI Design Inspiration #1 </tspan><tspan x="0" y="15.659">via @cssauthor</tspan></text>
    <path id="Rounded_Rectangle_2_copy" data-name="Rounded Rectangle 2 copy" d="M343,933a10,10,0,0,1-9.892-8.523c-4.8-1.954-11.89-5.133-8.108-5.477,5.5-.5,8-8,8-8V901a10,10,0,0,1,10-10H598a10,10,0,0,1,10,10v22a10,10,0,0,1-10,10Z" fill="#fff" opacity="0.702"/>
    <text id="Daily_Mobile_UI_Design_Inspiration_1_via_cssauthor-2" data-name="Daily Mobile UI Design Inspiration #1 
via @cssauthor" transform="translate(351.5 909.5)" fill="#8f8e8e" font-size="13.049" font-family="ArialMT, Arial" letter-spacing="0.01em"><tspan x="0" y="0">Daily Mobile UI Design Inspiration #1 </tspan><tspan x="0" y="15.659">via @cssauthor</tspan></text>
    <path id="Rounded_Rectangle_2_copy_2" data-name="Rounded Rectangle 2 copy 2" d="M343,989a10,10,0,0,1-9.892-8.523c-4.8-1.954-11.89-5.133-8.108-5.477,5.5-.5,8-8,8-8V957a10,10,0,0,1,10-10H598a10,10,0,0,1,10,10v22a10,10,0,0,1-10,10Z" fill="#fff" opacity="0.6"/>
    <text id="Daily_Mobile_UI_Design_Inspiration_1_via_cssauthor-3" data-name="Daily Mobile UI Design Inspiration #1 
via @cssauthor" transform="translate(351.5 965.5)" fill="#8f8e8e" font-size="13.049" font-family="ArialMT, Arial" letter-spacing="0.01em"><tspan x="0" y="0">Daily Mobile UI Design Inspiration #1 </tspan><tspan x="0" y="15.659">via @cssauthor</tspan></text>
  </g>
</svg>
